<svg xmlns="http://www.w3.org/2000/svg" viewBox="0 0 200 200" width="200" height="200" role="img" aria-label="파란 곰 캐릭터">
  <g fill="none" stroke="#1D5FA6" stroke-width="7" stroke-linecap="round" stroke-linejoin="round">
    <!-- ears -->
    <circle cx="66" cy="42" r="17" fill="#6FC0E8"/>
    <circle cx="134" cy="42" r="17" fill="#6FC0E8"/>
    <!-- arms -->
    <path d="M44 118 L18 108" stroke-width="9"/>
    <path d="M156 118 L182 108" stroke-width="9"/>
    <!-- legs -->
    <path d="M78 168 L64 186" stroke-width="9"/>
    <path d="M122 168 L140 180" stroke-width="9"/>
    <!-- body -->
    <path d="M100 96 C130 96 150 118 150 142 C150 166 128 178 100 178 C72 178 50 166 50 142 C50 118 70 96 100 96 Z" fill="#6FC0E8"/>
    <!-- head -->
    <circle cx="100" cy="66" r="42" fill="#6FC0E8"/>
    <!-- muzzle -->
    <ellipse cx="100" cy="78" rx="24" ry="18" fill="#FFFFFF" stroke-width="5"/>
  </g>
  <!-- face details -->
  <g fill="none" stroke="#1D5FA6" stroke-width="5" stroke-linecap="round">
    <path d="M78 58 q7 -8 14 0"/>
    <path d="M108 58 q7 -8 14 0"/>
    <path d="M100 78 v7"/>
    <path d="M100 85 q-7 6 -13 1"/>
    <path d="M100 85 q7 6 13 1"/>
  </g>
  <ellipse cx="100" cy="73" rx="7" ry="5" fill="#1D5FA6"/>
  <!-- heart on chest -->
  <path d="M100 130 c-4 -8 -16 -6 -16 3 c0 8 12 14 16 18 c4 -4 16 -10 16 -18 c0 -9 -12 -11 -16 -3 Z" fill="#D6EEF9" stroke="#1D5FA6" stroke-width="4" stroke-linejoin="round"/>
</svg>
